<svg xmlns="http://www.w3.org/2000/svg" viewBox="0 0 310 100" width="310" height="100" preserveAspectRatio="xMidYMid meet" style="width: 100%; height: 100%;"><g clip-path="url(#animationMask_awhmVmpWHw)"><g clip-path="url(#cp_0yEwhY5V)" transform="matrix(0.1949,0,0,0.1949,-219.1561,-160.4628)" opacity="1"><g clip-path="url(#mza0jHEiFN)" style="display: block;"><g style="display: block;" transform="matrix(2.2534,0,0,2.2534,-333.3801,-272.0281)" opacity="1"><g opacity="1" transform="matrix(1,0,0,1,1321.825,600.06)"><path fill="rgb(44,45,44)" fill-opacity="1" d=" M-8.626999855041504,20.386999130249023 C-8.626999855041504,20.386999130249023 -8.626999855041504,-30 -8.626999855041504,-30 C-8.626999855041504,-30 -18.7549991607666,-30 -18.7549991607666,-30 C-18.7549991607666,-30 -18.7549991607666,30 -18.7549991607666,30 C-18.7549991607666,30 18.7549991607666,30 18.7549991607666,30 C18.7549991607666,30 18.7549991607666,20.386999130249023 18.7549991607666,20.386999130249023 C18.7549991607666,20.386999130249023 -8.626999855041504,20.386999130249023 -8.626999855041504,20.386999130249023z"></path></g></g><g style="display: block;" transform="matrix(2.2534,0,0,2.2534,-333.3801,-272.0281)" opacity="1"><g opacity="1" transform="matrix(1,0,0,1,1249.708,600.06)"><path fill="rgb(44,45,44)" fill-opacity="1" d=" M-5.4079999923706055,-30 C-5.4079999923706055,-30 -31.844999313354492,30 -31.844999313354492,30 C-31.844999313354492,30 -21.030000686645508,30 -21.030000686645508,30 C-21.030000686645508,30 0,-17.725000381469727 0,-17.725000381469727 C0,-17.725000381469727 21.030000686645508,30 21.030000686645508,30 C21.030000686645508,30 31.844999313354492,30 31.844999313354492,30 C31.844999313354492,30 5.4070000648498535,-30 5.4070000648498535,-30 C5.4070000648498535,-30 -5.4079999923706055,-30 -5.4079999923706055,-30z"></path></g></g><g style="display: block;" transform="matrix(2.2534,0,0,2.2534,-333.3801,-272.0281)" opacity="1"><g opacity="1" transform="matrix(1,0,0,1,1181.5389,600.06)"><path fill="rgb(44,45,44)" fill-opacity="1" d=" M23.26099967956543,-30 C23.26099967956543,-30 -23.26099967956543,-30 -23.26099967956543,-30 C-23.26099967956543,-30 -23.26099967956543,-20.729000091552734 -23.26099967956543,-20.729000091552734 C-23.26099967956543,-20.729000091552734 -5.065000057220459,-20.729000091552734 -5.065000057220459,-20.729000091552734 C-5.065000057220459,-20.729000091552734 -5.065000057220459,30 -5.065000057220459,30 C-5.065000057220459,30 5.064000129699707,30 5.064000129699707,30 C5.064000129699707,30 5.064000129699707,-20.729000091552734 5.064000129699707,-20.729000091552734 C5.064000129699707,-20.729000091552734 23.26099967956543,-20.729000091552734 23.26099967956543,-20.729000091552734 C23.26099967956543,-20.729000091552734 23.26099967956543,-30 23.26099967956543,-30z"></path></g></g><g style="display: block;" transform="matrix(2.2534,0,0,2.2534,-333.3801,-272.0281)" opacity="1"><g opacity="1" transform="matrix(1,0,0,1,1126.6169,600.061)"><path fill="rgb(44,45,44)" fill-opacity="1" d=" M-5.064000129699707,30 C-5.064000129699707,30 5.064000129699707,30 5.064000129699707,30 C5.064000129699707,30 5.064000129699707,-30 5.064000129699707,-30 C5.064000129699707,-30 -5.064000129699707,-30 -5.064000129699707,-30 C-5.064000129699707,-30 -5.064000129699707,30 -5.064000129699707,30z"></path></g></g><g style="display: block;" transform="matrix(2.2534,0,0,2.2534,-333.3801,-272.0281)" opacity="1"><g opacity="1" transform="matrix(1,0,0,1,1063.792,600.06)"><path fill="rgb(44,45,44)" fill-opacity="1" d=" M17.0310001373291,1.159999966621399 C17.0310001373291,1.159999966621399 5.718999862670898,1.159999966621399 5.718999862670898,1.159999966621399 C5.718999862670898,1.159999966621399 1.7400000095367432,10.192999839782715 1.7400000095367432,10.192999839782715 C1.7400000095367432,10.192999839782715 17.0310001373291,10.192999839782715 17.0310001373291,10.192999839782715 C17.0310001373291,10.192999839782715 17.0310001373291,17.072999954223633 17.0310001373291,17.072999954223633 C13.329000473022461,19.448999404907227 8.727999687194824,20.635000228881836 3.2320001125335693,20.635000228881836 C-2.2669999599456787,20.635000228881836 -6.948999881744385,18.770999908447266 -10.815999984741211,15.041999816894531 C-14.682999610900879,11.312999725341797 -16.615999221801758,6.368000030517578 -16.615999221801758,0.20600000023841858 C-16.615999221801758,-5.953000068664551 -14.626999855041504,-10.925999641418457 -10.649999618530273,-14.710000038146973 C-6.671999931335449,-18.493999481201172 -1.7549999952316284,-20.386999130249023 4.1020002365112305,-20.386999130249023 C7.139999866485596,-20.386999130249023 9.805999755859375,-20.013999938964844 12.098999977111816,-19.26799964904785 C14.390999794006348,-18.52199935913086 16.670000076293945,-17.183000564575195 18.93600082397461,-15.25 C18.93600082397461,-15.25 24.158000946044922,-22.70800018310547 24.158000946044922,-22.70800018310547 C18.631999969482422,-27.569000244140625 11.697999954223633,-30 3.3559999465942383,-30 C-4.986999988555908,-30 -12.100000381469727,-27.12700080871582 -17.983999252319336,-21.381999969482422 C-23.867000579833984,-15.635000228881836 -26.809999465942383,-8.45300006866455 -26.809999465942383,0.16500000655651093 C-26.809999465942383,8.784000396728516 -23.92300033569336,15.911999702453613 -18.14900016784668,21.547000885009766 C-12.376999855041504,27.180999755859375 -5.208000183105469,30 3.3559999465942383,30 C13.520999908447266,30 21.34000015258789,26.98900032043457 26.80900001525879,20.966999053955078 C26.80900001525879,20.966999053955078 26.80900001525879,10.192999839782715 26.80900001525879,10.192999839782715 C26.80900001525879,10.192999839782715 26.80900001525879,1.2549999952316284 26.80900001525879,1.2549999952316284 C26.80900001525879,1.2549999952316284 26.80900001525879,1.159999966621399 26.80900001525879,1.159999966621399 C26.80900001525879,1.159999966621399 26.76799964904785,1.159999966621399 26.76799964904785,1.159999966621399 C26.76799964904785,1.159999966621399 17.0310001373291,1.159999966621399 17.0310001373291,1.159999966621399z"></path></g></g><g style="display: block;" transform="matrix(2.2534,0,0,2.2534,-333.3801,-272.0281)" opacity="1"><g opacity="1" transform="matrix(1,0,0,1,991.972,600.061)"><path fill="rgb(44,45,44)" fill-opacity="1" d=" M-11.458999633789062,4.420000076293945 C-11.458999633789062,4.420000076293945 17.297000885009766,4.420000076293945 17.297000885009766,4.420000076293945 C17.297000885009766,4.420000076293945 17.297000885009766,-4.5929999351501465 17.297000885009766,-4.5929999351501465 C17.297000885009766,-4.5929999351501465 -11.458999633789062,-4.5929999351501465 -11.458999633789062,-4.5929999351501465 C-11.458999633789062,-4.5929999351501465 -11.458999633789062,-20.472000122070312 -11.458999633789062,-20.472000122070312 C-11.458999633789062,-20.472000122070312 20.558000564575195,-20.472000122070312 20.558000564575195,-20.472000122070312 C20.558000564575195,-20.472000122070312 20.558000564575195,-30 20.558000564575195,-30 C20.558000564575195,-30 -21.58799934387207,-30 -21.58799934387207,-30 C-21.58799934387207,-30 -21.58799934387207,30 -21.58799934387207,30 C-21.58799934387207,30 21.58799934387207,30 21.58799934387207,30 C21.58799934387207,30 21.58799934387207,20.472000122070312 21.58799934387207,20.472000122070312 C21.58799934387207,20.472000122070312 -11.458999633789062,20.472000122070312 -11.458999633789062,20.472000122070312 C-11.458999633789062,20.472000122070312 -11.458999633789062,4.420000076293945 -11.458999633789062,4.420000076293945z"></path></g></g><g style="display: block;" transform="matrix(2.2534,0,0,2.2534,-333.3801,-272.0281)" opacity="1"><g opacity="1" transform="matrix(1,0,0,1,918.907,600.06)"><path fill="rgb(44,45,44)" fill-opacity="1" d=" M-2.575000047683716,0.6439999938011169 C-2.575000047683716,0.6439999938011169 -15.192999839782715,0.6439999938011169 -15.192999839782715,0.6439999938011169 C-15.192999839782715,0.6439999938011169 -15.192999839782715,-20.815000534057617 -15.192999839782715,-20.815000534057617 C-15.192999839782715,-20.815000534057617 -2.316999912261963,-20.815000534057617 -2.316999912261963,-20.815000534057617 C3.11899995803833,-20.815000534057617 6.894999980926514,-20.086000442504883 9.012999534606934,-18.625999450683594 C11.130000114440918,-17.16699981689453 12.189000129699707,-14.47700023651123 12.189000129699707,-10.557999610900879 C12.189000129699707,-6.63700008392334 11.159000396728516,-3.7899999618530273 9.098999977111816,-2.0169999599456787 C7.038000106811523,-0.24199999868869781 3.1470000743865967,0.6439999938011169 -2.575000047683716,0.6439999938011169z M22.575000762939453,-10.513999938964844 C22.575000762939453,-17.323999404907227 20.60099983215332,-22.27400016784668 16.652999877929688,-25.36400032043457 C12.704000473022461,-28.454999923706055 6.151000022888184,-30 -3.003999948501587,-30 C-3.003999948501587,-30 -25.32200050354004,-30 -25.32200050354004,-30 C-25.32200050354004,-30 -25.32200050354004,30 -25.32200050354004,30 C-25.32200050354004,30 -15.192999839782715,30 -15.192999839782715,30 C-15.192999839782715,30 -15.192999839782715,9.829000473022461 -15.192999839782715,9.829000473022461 C-15.192999839782715,9.829000473022461 -1.8880000114440918,9.829000473022461 -1.8880000114440918,9.829000473022461 C-1.8880000114440918,9.829000473022461 12.446000099182129,30 12.446000099182129,30 C12.446000099182129,30 25.32200050354004,30 25.32200050354004,30 C25.32200050354004,30 9.61400032043457,8.197999954223633 9.61400032043457,8.197999954223633 C18.253000259399414,5.623000144958496 22.575000762939453,-0.6140000224113464 22.575000762939453,-10.513999938964844z"></path></g></g><g style="display: block;" transform="matrix(2.2534,0,0,2.2534,-333.3801,-272.0281)" opacity="1"><g opacity="1" transform="matrix(1,0,0,1,837.492,600.06)"><path fill="rgb(44,45,44)" fill-opacity="1" d=" M4.1020002365112305,-20.386999130249023 C7.416999816894531,-20.386999130249023 10.303000450134277,-19.861000061035156 12.76200008392334,-18.812000274658203 C15.220000267028809,-17.761999130249023 17.829999923706055,-15.911999702453613 20.5939998626709,-13.260000228881836 C20.5939998626709,-13.260000228881836 26.809999465942383,-20.05500030517578 26.809999465942383,-20.05500030517578 C20.785999298095703,-26.684999465942383 13.286999702453613,-30 4.309000015258789,-30 C-4.670000076293945,-30 -12.100000381469727,-27.12700080871582 -17.983999252319336,-21.381999969482422 C-23.868000030517578,-15.635000228881836 -26.809999465942383,-8.45300006866455 -26.809999465942383,0.16599999368190765 C-26.809999465942383,8.784000396728516 -23.92300033569336,15.911999702453613 -18.14900016784668,21.547000885009766 C-12.376999855041504,27.18199920654297 -5.111000061035156,30 3.6459999084472656,30 C12.402000427246094,30 19.847000122070312,26.601999282836914 25.979999542236328,19.80699920654297 C25.979999542236328,19.80699920654297 19.68199920654297,13.343000411987305 19.68199920654297,13.343000411987305 C17.030000686645508,15.82800006866455 14.48799991607666,17.638999938964844 12.057999610900879,18.770999908447266 C9.62600040435791,19.90399932861328 6.724999904632568,20.4689998626709 3.3550000190734863,20.4689998626709 C-2.059000015258789,20.4689998626709 -6.742000102996826,18.493999481201172 -10.690999984741211,14.543999671936035 C-14.642000198364258,10.595000267028809 -16.617000579833984,5.676000118255615 -16.617000579833984,-0.2070000022649765 C-16.617000579833984,-6.091000080108643 -14.626999855041504,-10.925999641418457 -10.649999618530273,-14.710000038146973 C-6.671999931335449,-18.493999481201172 -1.7549999952316284,-20.386999130249023 4.1020002365112305,-20.386999130249023z"></path></g></g></g></g><g clip-path="url(#cp_EXE5amrS)" style="display: block;" transform="matrix(0.0996,0,0,0.0996,-161.3806,-57.6004)" opacity="1"><g style="display: block;" transform="matrix(4.3792,0,0,4.3792,-1210.1982,-1547.52)" opacity="1"><g opacity="1" transform="matrix(1,0,0,1,719.42,600.06)"><path fill="rgb(0,186,186)" fill-opacity="1" d=" M3.3559999465942383,20.4689998626709 C6.72599983215332,20.4689998626709 9.626999855041504,19.90399932861328 12.057999610900879,18.770999908447266 C14.48799991607666,17.638999938964844 17.030000686645508,15.82800006866455 19.68199920654297,13.343000411987305 C19.68199920654297,13.343000411987305 25.981000900268555,19.80699920654297 25.981000900268555,19.80699920654297 C19.847999572753906,26.601999282836914 12.402000427246094,30 3.6459999084472656,30 C-5.111000061035156,30 -12.376999855041504,27.18199920654297 -18.14900016784668,21.547000885009766 C-23.92300033569336,15.911999702453613 -26.809999465942383,8.784000396728516 -26.809999465942383,0.16599999368190765 C-26.809999465942383,-8.45300006866455 -23.868000030517578,-15.635000228881836 -17.982999801635742,-21.381999969482422 C-12.100000381469727,-27.12700080871582 -4.669000148773193,-30 4.309000015258789,-30 C13.286999702453613,-30 20.78700065612793,-26.684999465942383 26.809999465942383,-20.05500030517578 C26.809999465942383,-20.05500030517578 20.5939998626709,-13.260000228881836 20.5939998626709,-13.260000228881836 C17.829999923706055,-15.911999702453613 15.220000267028809,-17.761999130249023 12.76200008392334,-18.812000274658203 C10.303999900817871,-19.861000061035156 7.416999816894531,-20.386999130249023 4.1020002365112305,-20.386999130249023 C-1.7549999952316284,-20.386999130249023 -6.671999931335449,-18.493999481201172 -10.64900016784668,-14.710000038146973 C-14.626999855041504,-10.925999641418457 -16.615999221801758,-6.091000080108643 -16.615999221801758,-0.2070000022649765 C-16.615999221801758,5.676000118255615 -14.642000198364258,10.595000267028809 -10.690999984741211,14.543999671936035 C-6.742000102996826,18.493999481201172 -2.059000015258789,20.4689998626709 3.3559999465942383,20.4689998626709z"></path></g></g></g><g filter="url(#vJpZKbSIpT)" mask="url(#zu6q17JwbX)" style="display: block;" transform="matrix(0.0448,0,0,0.0448,14.5555,32.5104)" opacity="1"><rect width="100" height="100" fill="#ffffff"></rect></g><g clip-path="url(#cp_I8sWOZ0Q)" style="display: block;" transform="matrix(0.0996,0,0,0.0996,-161.3806,-57.6004)" opacity="1"><g filter="url(#3CNG4xDQgG)" style="display: block;" transform="matrix(4.3792,0,0,4.3792,-1210.1982,-1547.5198)" opacity="1"><g mask="url(#stms_tmp56Nq8sB)"><g opacity="1" transform="matrix(1,0,0,1,719.42,600)"><path fill="rgb(255,255,255)" fill-opacity="1" d=" M50,50 C50,50 -50,50 -50,50 C-50,50 -50,-50 -50,-50 C-50,-50 50,-50 50,-50 C50,-50 50,50 50,50z M-60,60 C-60,60 60,60 60,60 C60,60 60,-60 60,-60 C60,-60 -60,-60 -60,-60 C-60,-60 -60,60 -60,60z"></path></g></g></g></g></g><defs><clipPath id="animationMask_awhmVmpWHw"><rect width="310" height="100" x="0" y="0"></rect></clipPath><clipPath id="cp_I8sWOZ0Q"><path d="M0,0 L3840,0 L3840,2160 L0,2160z"></path></clipPath><filter id="3CNG4xDQgG" filterUnits="objectBoundingBox" x="0%" y="0%" width="100%" height="100%"><feColorMatrix type="matrix" color-interpolation-filters="sRGB" values="0 0 0 0 0 0 0 0 0 0.729411780834198 0 0 0 0 0.729411780834198 0 0 0 1 0"></feColorMatrix></filter><path d="" fill-opacity="1"></path><filter id="vJpZKbSIpT" filterUnits="objectBoundingBox" x="0%" y="0%" width="100%" height="100%"><feColorMatrix type="matrix" color-interpolation-filters="sRGB" values="0 0 0 0 0 0 0 0 0 0.729411780834198 0 0 0 0 0.729411780834198 0 0 0 1 0"></feColorMatrix></filter><mask id="zu6q17JwbX"><path fill="#ffffff" clip-rule="nonzero" d=" M100,0 C100,0 0,0 0,0 C0,0 0,100 0,100 C0,100 100,100 100,100 C100,100 100,0 100,0" fill-opacity="1"></path><path fill="#000000" clip-rule="nonzero" d=" M100,0 C100,0 0,0 0,0 C0,0 0,100 0,100 C0,100 100,100 100,100 C100,100 100,0 100,0" fill-opacity="1"></path><path fill="#ffffff" clip-rule="nonzero" d=" M100,0 C100,0 0,0 0,0 C0,0 0,100 0,100 C0,100 100,100 100,100 C100,100 100,0 100,0" fill-opacity="1"></path></mask><clipPath id="cp_EXE5amrS"><path d="M0,0 L3840,0 L3840,2160 L0,2160z"></path></clipPath><clipPath id="cp_0yEwhY5V"><path d="M0,0 L3840,0 L3840,2160 L0,2160z"></path></clipPath><clipPath id="mza0jHEiFN"><path fill="#ffffff" clip-rule="nonzero" d=" M2754.306884765625,848.4249877929688 C2754.306884765625,848.4249877929688 1442.7320556640625,848.4249877929688 1442.7320556640625,848.4249877929688 C1442.7320556640625,848.4249877929688 1442.7320556640625,1297.4219970703125 1442.7320556640625,1297.4219970703125 C1442.7320556640625,1297.4219970703125 2754.306884765625,1297.4219970703125 2754.306884765625,1297.4219970703125 C2754.306884765625,1297.4219970703125 2754.306884765625,848.4249877929688 2754.306884765625,848.4249877929688" fill-opacity="1"></path></clipPath><mask id="stms_tmp56Nq8sB" mask-type="alpha"><g fill="none" stroke-linecap="round" stroke-dashoffset="1" stroke="#fff" stroke-width="77.8" opacity="1"><path d=" M728.9459838867188,655.260986328125 C728.9459838867188,655.260986328125 774.6160278320312,655.260986328125 774.6160278320312,655.260986328125 C774.6160278320312,655.260986328125 774.6160278320312,544.739013671875 774.6160278320312,544.739013671875 C774.6160278320312,544.739013671875 664.551025390625,544.739013671875 664.551025390625,544.739013671875 C664.551025390625,544.739013671875 664.551025390625,654.3480224609375 664.551025390625,654.3480224609375 C664.551025390625,654.3480224609375 721.1820068359375,654.3480224609375 721.1820068359375,654.3480224609375" stroke-dasharray="1 11.67"></path></g></mask></defs></svg>
