<?xml version="1.0" encoding="UTF-8"?>
<svg width="134px" height="30px" viewBox="0 0 134 30" version="1.1" xmlns="http://www.w3.org/2000/svg" xmlns:xlink="http://www.w3.org/1999/xlink">
    <!-- Generator: Sketch 52.4 (67378) - http://www.bohemiancoding.com/sketch -->
    <title>Full Colour Copy 2</title>
    <desc>Created with Sketch.</desc>
    <defs>
        <linearGradient x1="86.8723864%" y1="10.4687513%" x2="0%" y2="100%" id="linearGradient-1">
            <stop stop-color="#FFB800" offset="0%"></stop>
            <stop stop-color="#FF3900" offset="100%"></stop>
        </linearGradient>
    </defs>
    <g id="Branding-/-Styling-/-Marketing" stroke="none" stroke-width="1" fill="none" fill-rule="evenodd">
        <g id="Tablet" transform="translate(-569.000000, -441.000000)">
            <g id="Full-Colour-Copy-2" transform="translate(569.000000, 441.000000)">
                <path d="M0.00809075108,15.49 C0.114759796,18.8316667 1.32312007,21.9035 3.2796637,24.35 L12.9017116,14.7281667 L10.0983158,14.9616667 C9.27329735,15.03 8.54811452,14.415 8.47994633,13.59 C8.4114448,12.765 9.02479181,12.0398333 9.84981021,11.9716667 L16.1417838,11.45 C16.7301303,11.4016667 17.3051431,11.6133333 17.7218191,12.03 C18.138495,12.445 18.3484997,13.0215 18.2999986,13.6083333 L17.7834871,19.8881667 C17.7184857,20.6716667 17.0634711,21.265 16.2899538,21.265 C16.2484529,21.265 16.2067853,21.2631667 16.164951,21.26 C15.3399326,21.1916667 14.7249189,20.4666667 14.7934204,19.6416667 L15.0234256,16.85 L5.37654379,26.4966667 C7.86826602,28.585 11.0416701,29.8816667 14.5100808,29.9916667 C14.6565841,29.9961667 14.8019206,29.9993333 14.9480906,30 L15.07276,30 C19.0551821,29.9835 22.7770985,28.4346667 25.6069949,25.6066667 C28.5687276,22.6448333 30.125429,18.7033333 29.9920927,14.51 C29.7402537,6.63 23.3701117,0.26 15.4884359,0.00816666667 C15.3189322,0.00266666667 15.1497617,0 14.981258,0 C10.9781687,0 7.23525191,1.55133333 4.39302186,4.39333333 C1.43145582,7.355 -0.126912259,11.2966667 0.00809075108,15.49 Z" id="Mark" fill="url(#linearGradient-1)"></path>
                <g id="Logotype" transform="translate(39.000000, 1.000000)" fill="#3A4447">
                    <path d="M15.3919477,19.1711017 C15.3105363,20.8575619 14.7354602,22.1933537 13.663255,23.1773038 C12.5910497,24.1629301 11.22611,24.6559108 9.56497134,24.6559108 C7.79643897,24.6559108 6.40378468,24.1111344 5.38527633,23.0215815 C4.36676797,21.9335373 3.80381692,20.4550979 3.69815534,18.5894481 C3.67044083,17.8636383 3.67044083,17.1378284 3.69815534,16.4103424 C3.80381692,14.5446926 4.36676797,13.0662532 5.38527633,11.9785442 C6.40378468,10.8889913 7.79643897,10.3442149 9.56497134,10.3442149 C11.2520923,10.3442149 12.6256929,10.8435654 13.6840408,11.8410929 C14.7423888,12.8399614 15.3105363,14.2597326 15.3919477,16.1004065 C15.4179301,16.4891254 15.4317873,17.0003772 15.4317873,17.6358379 C15.4317873,18.2709634 15.4179301,18.7838914 15.3919477,19.1711017 M18.7263501,0.311779743 C18.5115626,0.103926581 18.2586677,0 17.964201,0 L16.476278,0 C16.1818113,0 15.9271843,0.103926581 15.7123968,0.311779743 C15.4976093,0.519632904 15.3919477,0.76436324 15.3919477,1.04949084 L15.3919477,9.64522483 C14.8826935,8.99635419 14.1326695,8.39458576 13.1418757,7.83639945 C12.1493497,7.27821313 10.8242495,7.00012572 9.1631109,7.00012572 C7.90383271,7.00012572 6.73116237,7.21468382 5.64683205,7.64212379 C4.56076956,8.06956376 3.61674396,8.67954574 2.81302308,9.46905251 C2.0093022,10.2604031 1.36667193,11.2259146 0.885132262,12.3672631 C0.40186044,13.507103 0.121250995,14.7910992 0.0398396126,16.2158991 C0.0138572566,16.6047857 0,17.0271969 0,17.4797804 C0,17.9340401 0.0138572566,18.3547752 0.0398396126,18.7436617 C0.121250995,20.1701379 0.40186044,21.454134 0.885132262,22.5941416 C1.36667193,23.7354901 2.0093022,24.7077065 2.81302308,25.5106231 C3.61674396,26.315216 4.56076956,26.9303943 5.64683205,27.3580019 C6.73116237,27.7854419 7.90383271,28 9.1631109,28 C10.796535,28 12.1095101,27.733311 13.1003039,27.2019444 C14.0910978,26.6722541 14.854979,26.0553996 15.3919477,25.3549009 L15.3919477,26.5617902 C15.3919477,26.8465826 15.4976093,27.0931568 15.7123968,27.2991661 C15.9271843,27.5070192 16.1818113,27.6111134 16.476278,27.6111134 L17.964201,27.6111134 C18.2586677,27.6111134 18.5115626,27.5070192 18.7263501,27.2991661 C18.9411376,27.0931568 19.0485313,26.8465826 19.0485313,26.5617902 L19.0485313,1.04949084 C19.0485313,0.76436324 18.9411376,0.519632904 18.7263501,0.311779743" id="Fill-1"></path>
                    <path d="M28.3127545,7.79103257 C28.0989502,7.5800617 27.8472128,7.47457627 27.5540939,7.47457627 L26.0729815,7.47457627 C25.7798626,7.47457627 25.526401,7.5800617 25.3125966,7.79103257 C25.0987923,8.00013192 24.9936143,8.25040462 24.9936143,8.53963888 L24.9936143,26.9351075 C24.9936143,27.2241716 25.0987923,27.4742742 25.3125966,27.6835437 C25.526401,27.8945146 25.7798626,28 26.0729815,28 L27.5540939,28 C27.8472128,28 28.0989502,27.8945146 28.3127545,27.6835437 C28.5265589,27.4742742 28.633461,27.2241716 28.633461,26.9351075 L28.633461,8.53963888 C28.633461,8.25040462 28.5265589,8.00013192 28.3127545,7.79103257 M28.3713783,0.256284675 C28.195507,0.0859902528 27.9885995,0 27.7489317,0 L25.8781436,0 C25.6384758,0 25.4298442,0.0859902528 25.2556971,0.256284675 C25.0798257,0.428265181 24.9936143,0.630595187 24.9936143,0.866646862 L24.9936143,2.69436126 C24.9936143,2.92872685 25.0798257,3.13274294 25.2556971,3.30303736 C25.4298442,3.47501786 25.6384758,3.55932203 25.8781436,3.55932203 L27.7489317,3.55932203 C27.9885995,3.55932203 28.195507,3.47501786 28.3713783,3.30303736 C28.5455254,3.13274294 28.633461,2.92872685 28.633461,2.69436126 L28.633461,0.866646862 C28.633461,0.630595187 28.5455254,0.428265181 28.3713783,0.256284675" id="Fill-3"></path>
                    <path d="M49.7892175,20.0415684 C49.5751738,19.4296537 49.2144067,18.8683104 48.706916,18.3593929 C48.1994254,17.8519926 47.5331281,17.3951636 46.704572,16.9904234 C45.877742,16.5858516 44.8489514,16.2537657 43.6216526,15.9941655 C42.4461386,15.7328796 41.4656805,15.5122194 40.6785521,15.3283078 C39.8896976,15.1464191 39.2561974,14.9441333 38.7763253,14.723136 C38.294727,14.5007901 37.9477692,14.2393356 37.7354516,13.9411325 C37.521408,13.6409066 37.4143861,13.2430777 37.4143861,12.7474774 C37.4143861,11.9653054 37.794141,11.3535592 38.555377,10.9100475 C39.316613,10.4667043 40.3108803,10.2443584 41.5399053,10.2443584 C42.7413117,10.2443584 43.6820682,10.3943871 44.3621747,10.6944444 C45.0440074,10.9943332 45.5566765,11.3651907 45.9036344,11.8085338 C46.0900595,12.0430169 46.2971985,12.1945627 46.5250515,12.2586199 C46.7511783,12.3245314 46.9462342,12.3563914 47.1050408,12.3563914 L48.4272783,12.3563914 C48.7207253,12.3563914 48.9813752,12.251877 49.207502,12.0430169 C49.435355,11.8355053 49.5354722,11.5878737 49.5078536,11.3011335 C49.4819612,10.8308188 49.29381,10.3421299 48.9485782,9.83456096 C48.5998942,9.32564344 48.0924035,8.85010309 47.4261063,8.40675991 C46.7580829,7.9635853 45.9381575,7.59930217 44.9628779,7.31104482 C43.9875983,7.02447318 42.8466074,6.88135593 41.5399053,6.88135593 C40.231477,6.88135593 39.08876,7.0379589 38.1152065,7.34998485 C37.1399269,7.66335936 36.3338108,8.09321682 35.6916798,8.64107437 C35.0512749,9.18893191 34.5714028,9.81433237 34.2503373,10.51913 C33.930998,11.2220734 33.7704652,11.9653054 33.7704652,12.7474774 C33.7704652,14.1299327 34.203731,15.3350507 35.0719888,16.3650229 C35.9385205,17.3951636 37.4540878,18.1316528 39.6169646,18.5751645 C40.7648601,18.8093104 41.7729367,19.0301391 42.6411945,19.2391679 C43.5077262,19.4481966 44.2223558,19.6690253 44.7833574,19.9050255 C45.344359,20.1393399 45.7638155,20.4191687 46.0451794,20.7445118 C46.3248171,21.0715406 46.4646359,21.4811695 46.4646359,21.9767699 C46.4646359,22.3680244 46.3317217,22.7270818 46.0641671,23.0522564 C45.7966125,23.3794538 45.4444762,23.6592825 45.0025796,23.893597 C44.5624091,24.1277429 44.0549185,24.3114859 43.4818338,24.4414545 C42.907023,24.5710861 42.3270336,24.6369975 41.7401397,24.6369975 C40.5387333,24.6369975 39.5634537,24.4800574 38.816027,24.1666829 C38.0686003,23.854657 37.4799802,23.4113138 37.053619,22.8364848 C36.8671938,22.5768846 36.6669594,22.4268559 36.4529158,22.3880845 C36.2388721,22.349313 36.052447,22.3290844 35.8919142,22.3290844 L34.4505717,22.3290844 C34.1312324,22.3290844 33.8636778,22.4335988 33.6496341,22.6427961 C33.4355904,22.8516562 33.3423779,23.0979393 33.3699964,23.3843423 C33.3958888,23.854657 33.6030278,24.3571688 33.9896874,24.8915406 C34.3763469,25.4257438 34.93217,25.9215128 35.6519782,26.3764874 C36.3735125,26.8333163 37.2400441,27.2176594 38.2550254,27.5313711 C39.2700067,27.8430599 40.4317115,28 41.7401397,28 C43.0468418,28 44.2154512,27.8295742 45.2442418,27.4907453 C46.2713062,27.1536022 47.1464686,26.7087419 47.8662767,26.1625701 C48.5878111,25.6147125 49.141908,24.9758264 49.5285675,24.245743 C49.9152271,23.5158281 50.1085568,22.7589419 50.1085568,21.9767699 C50.1085568,21.2992808 50.001535,20.6536518 49.7892175,20.0415684" id="Fill-6"></path>
                    <path d="M72.7551338,12.2251821 C72.3245822,11.1202768 71.7249475,10.1940262 70.9562298,9.44439048 C70.1875121,8.6962846 69.2636564,8.11663429 68.1864057,7.71036911 C67.1074119,7.30257407 65.9342895,7.09859155 64.6670383,7.09859155 C63.0232723,7.09859155 61.6950118,7.38059738 60.6839998,7.94664886 C59.6729879,8.51270034 58.9112427,9.12294803 58.3987642,9.78096163 L58.3987642,1.06410879 C58.3987642,0.77513356 58.2906905,0.526954832 58.0762863,0.316002914 C57.8601389,0.105390966 57.6038997,0 57.3075686,0 L55.8119681,0 C55.5138939,0 55.2576547,0.105390966 55.0432504,0.316002914 C54.8271031,0.526954832 54.7190294,0.77513356 54.7190294,1.06410879 L54.7190294,26.9358912 C54.7190294,27.2246965 54.8271031,27.474745 55.0432504,27.6836571 C55.2576547,27.894609 55.5138939,28 55.8119681,28 L57.3075686,28 C57.6038997,28 57.8601389,27.894609 58.0762863,27.6836571 C58.2906905,27.474745 58.3987642,27.2246965 58.3987642,26.9358912 L58.3987642,16.5242836 C58.3987642,14.4997572 58.9182152,12.9884167 59.9571171,11.9889024 C60.9942759,10.9893881 62.3626283,10.4898009 64.0604311,10.4898009 C65.8401608,10.4898009 67.2294306,10.9893881 68.2264976,11.9889024 C69.2235645,12.9884167 69.722098,14.4997572 69.722098,16.5242836 L69.722098,26.9358912 C69.722098,27.2246965 69.8301717,27.474745 70.0463191,27.6836571 C70.2624665,27.894609 70.5169626,28 70.8150368,28 L72.3106372,28 C72.6069683,28 72.8632075,27.894609 73.0793549,27.6836571 C73.2955023,27.474745 73.403576,27.2246965 73.403576,26.9358912 L73.403576,15.9327343 C73.403576,14.5660515 73.1874286,13.3283876 72.7551338,12.2251821" id="Fill-8"></path>
                    <path d="M91.3620202,18.8480819 C91.3620202,19.7094825 91.2086426,20.4916545 90.9018873,21.1945979 C90.595132,21.8993955 90.1556792,22.5043988 89.5835289,23.0136535 C89.0096553,23.522571 88.3237642,23.9187141 87.5241325,24.2071401 C86.7245007,24.4935431 85.8455952,24.6369975 84.8856924,24.6369975 C84.1911846,24.6369975 83.612141,24.5576003 83.146838,24.4025145 C82.6798117,24.2459115 82.2989526,24.0367142 82.0059841,23.7754283 C81.7130156,23.5158281 81.4994932,23.2427422 81.3666234,22.9544849 C81.2339258,22.6679132 81.1667154,22.3815102 81.1667154,22.0949385 C81.1667154,21.1829664 81.6595919,20.4393973 82.6470682,19.8645683 C83.6328211,19.2915936 84.9649662,18.8750533 86.6452269,18.6137674 L91.3620202,17.8703669 L91.3620202,18.8480819 Z M94.3814917,11.3011335 C93.9677168,10.3352185 93.3938431,9.5279293 92.6614218,8.8755574 C91.9290005,8.22470263 91.0483716,7.72927084 90.0229817,7.39027345 C88.9960408,7.0516132 87.8843114,6.88135593 86.6848638,6.88135593 C85.6456872,6.88135593 84.6651043,7.03121604 83.7465618,7.33144198 C82.826296,7.63149934 82.0128775,8.01567391 81.3063063,8.48447139 C80.5997351,8.95478603 80.0413716,9.48898927 79.627769,10.0874183 C79.2141663,10.6877016 78.9815149,11.274162 78.9280912,11.8474739 C78.9005177,12.1357312 79.000644,12.3833628 79.2279531,12.5908744 C79.4537112,12.7997346 79.7139362,12.9042489 80.0069047,12.9042489 L81.2063523,12.9042489 C81.5268944,12.9042489 81.780226,12.865646 81.9663472,12.7864174 C82.1524684,12.7087059 82.3265261,12.5654201 82.4867971,12.3563914 C82.9124632,11.7834167 83.4260198,11.2876477 84.0257436,10.8695903 C84.6254674,10.4532186 85.5112664,10.2443584 86.6848638,10.2443584 C88.017009,10.2443584 89.1302894,10.5764444 90.0229817,11.242302 C90.915674,11.9063053 91.3620202,12.9042489 91.3620202,14.234447 L91.3620202,14.7418474 L85.7249611,15.6418509 C84.6047873,15.8240768 83.5466539,16.0851941 82.5471142,16.4240229 C81.5475745,16.7630203 80.673839,17.2063635 79.9276309,17.7542211 C79.1814228,18.3002243 78.5937624,18.9660819 78.1680964,19.7484225 C77.7424303,20.5304259 77.5287356,21.4425666 77.5287356,22.485856 C77.5287356,23.2681965 77.6941767,23.9981113 78.0285055,24.6756004 C78.3611109,25.3534266 78.8283096,25.9331442 79.427861,26.4154274 C80.0275848,26.8992278 80.7600062,27.2835709 81.6268483,27.569974 C82.4919672,27.8565456 83.4466999,28 84.4858765,28 C85.0976637,28 85.7577046,27.9340885 86.4642758,27.804457 C87.1708469,27.6729712 87.8498446,27.4789453 88.502992,27.2176594 C89.1561395,26.9580592 89.7369066,26.6379419 90.2435698,26.2603416 C90.7485096,25.8825727 91.1224754,25.4444553 91.3620202,24.9486863 L91.3620202,26.5536561 C91.3620202,26.8400591 91.4688676,27.0880279 91.6825623,27.2952023 C91.8945336,27.5043996 92.1478652,27.608914 92.4427294,27.608914 L93.9211865,27.608914 C94.214155,27.608914 94.467659,27.5043996 94.6811813,27.2952023 C94.8931527,27.0880279 95,26.8400591 95,26.5536561 L95,14.6253645 C95,13.3730464 94.7931987,12.2653627 94.3814917,11.3011335 Z" id="Fill-10"></path>
                </g>
            </g>
        </g>
    </g>
</svg>