<?xml version="1.0" encoding="UTF-8"?>
<svg width="125px" height="29px" viewBox="0 0 125 29" version="1.1" xmlns="http://www.w3.org/2000/svg" xmlns:xlink="http://www.w3.org/1999/xlink">
    <!-- Generator: Sketch 52.5 (67469) - http://www.bohemiancoding.com/sketch -->
    <title>Group 11</title>
    <desc>Created with Sketch.</desc>
    <g id="Disha-Signatures" stroke="none" stroke-width="1" fill="none" fill-rule="evenodd">
        <g id="Desktop-HD-Copy-5" transform="translate(-82.000000, -27.000000)" fill="#FFFFFF">
            <g id="Group-11" transform="translate(82.000000, 27.000000)">
                <path d="M112.677395,22.0987548 C112.677395,22.6962342 112.909395,23.199563 113.374189,23.6087411 C113.838586,24.0183164 114.436463,24.2229055 115.165833,24.2229055 C116.338545,24.2229055 117.334079,23.8244534 118.152436,23.0279466 C118.970395,22.231837 119.380367,21.1699603 119.380367,19.8427137 L119.380367,18.5154671 C118.096819,18.8253301 117.079038,19.0354808 116.327422,19.1455219 C113.893805,19.5002753 112.677395,20.4846863 112.677395,22.0987548 M107.302463,22.5635493 C107.302463,20.7496589 107.999258,19.2452342 109.392847,18.0510699 C110.786038,16.8565082 112.831929,16.0600014 115.531312,15.6619466 C117.743258,15.3079877 119.026011,15.0759877 119.380367,14.9651521 L119.380367,13.9362479 C119.380367,13.118289 119.097915,12.5152479 118.534203,12.1275219 C117.970093,11.7413849 117.234367,11.5471247 116.327422,11.5471247 C114.247764,11.5471247 112.456121,12.3658781 110.952093,14.0025904 L107.832805,11.3151247 C110.001052,8.72657671 112.810477,7.4327 116.261477,7.4327 C119.313627,7.4327 121.481874,8.16286438 122.764627,9.62279589 C124.047381,11.0831247 124.689353,13.1516589 124.689353,15.8276041 L124.689353,28.6027 L119.546025,28.6027 L119.546025,25.9478096 C119.14797,26.7006178 118.484545,27.3306726 117.555353,27.8391658 C116.626162,28.3476589 115.564682,28.6027 114.369723,28.6027 C112.201874,28.6027 110.482134,28.0441521 109.20971,26.9266589 C107.937285,25.8103575 107.302463,24.3555904 107.302463,22.5635493 Z M87.7912233,28.6027397 L87.7912233,0 L93.0338671,0 L93.0338671,9.92157534 L93.1335795,9.92157534 C94.3281411,8.66067123 95.8544151,8.02982192 97.7127986,8.02982192 C98.5752507,8.02982192 99.3888397,8.16290411 100.151579,8.42827397 C100.914319,8.69364384 101.632566,9.10838356 102.307908,9.67249315 C102.983251,10.237 103.519155,11.0446301 103.91721,12.094589 C104.315264,13.1457397 104.515086,14.3792329 104.515086,15.7946712 L104.515086,28.6027397 L99.2049082,28.6027397 L99.2049082,16.3917534 C99.2049082,13.8258493 98.3869493,12.5426986 96.750237,12.5426986 C95.6661137,12.5426986 94.7758534,13.0237808 94.0794562,13.9859452 C93.3826616,14.9485068 93.0338671,16.0822877 93.0338671,17.3876849 L93.0338671,28.6027397 L87.7912233,28.6027397 Z M67.7161918,23.6920863 L71.4325616,21.5015932 C72.7816575,23.4044699 74.4739863,24.355511 76.5095479,24.355511 C77.3497534,24.355511 78.0076164,24.1727712 78.4835342,23.8080863 C78.9594521,23.4430041 79.1970137,22.9948945 79.1970137,22.4637575 C79.1970137,22.287374 79.1692055,22.1109904 79.1139863,21.9330178 C79.0587671,21.756237 78.9701781,21.5961411 78.8486164,21.4519356 C78.7270548,21.3085247 78.5995342,21.1817986 78.4668493,21.0701685 C78.3345616,20.9601274 78.1518219,20.8437301 77.9194247,20.7217712 C77.6874247,20.6010041 77.4824384,20.5012918 77.3060548,20.4230315 C77.1284795,20.345963 76.8909178,20.2526068 76.5925753,20.141374 C76.2934384,20.0309356 76.0451507,19.9479082 75.845726,19.892689 C75.6466986,19.8374699 75.3698082,19.7544425 75.0162466,19.6440041 C74.6618904,19.5327712 74.3965205,19.4449767 74.220137,19.378237 C72.5385342,18.8252507 71.1946027,18.1062096 70.1883425,17.221511 C69.1812877,16.3368123 68.6783562,15.0429356 68.6783562,13.3390863 C68.6783562,11.5255932 69.4581781,10.0871137 71.0178219,9.02523699 C72.5774658,7.96375753 74.4191644,7.43262055 76.5425205,7.43262055 C78.2018767,7.43262055 79.7885342,7.86960685 81.3044795,8.74357945 C82.8192329,9.61755205 83.9530137,10.7620589 84.7054247,12.1778945 L81.2210548,14.2349082 C79.8052192,12.5314562 78.2682192,11.6801274 76.608863,11.6801274 C75.8127534,11.6801274 75.1874658,11.8461822 74.7341918,12.1778945 C74.2805205,12.5096068 74.0540822,12.9299082 74.0540822,13.4384014 C74.0540822,13.6823192 74.0977808,13.9087575 74.1867671,14.1189082 C74.2749589,14.3294562 74.4243288,14.5229219 74.6348767,14.6993055 C74.8446301,14.8772781 75.0436575,15.0314151 75.2319589,15.1641 C75.419863,15.2967849 75.6963562,15.4294699 76.0614384,15.5621548 C76.4265205,15.6948397 76.7137397,15.800511 76.9242877,15.8775795 C77.1344384,15.9550452 77.4717123,16.0658808 77.9361096,16.2092918 C78.4009041,16.3534973 78.7326164,16.458374 78.9316438,16.5243192 C82.7362055,17.8074699 84.6390822,19.8096616 84.6390822,22.5304973 C84.6390822,24.2121 83.9530137,25.6442233 82.5816712,26.8276616 C81.2095342,28.0107027 79.2411096,28.6026205 76.6752055,28.6026205 C74.6618904,28.6026205 72.8642877,28.154511 71.2831918,27.2590863 C69.7013014,26.3628671 68.5123014,25.1738671 67.7161918,23.6920863 Z M59.5207123,28.6027397 L59.5207123,8.02982192 L64.7633562,8.02982192 L64.7633562,28.6027397 L59.5207123,28.6027397 Z M59.4539726,5.50920548 L59.4539726,0.0671369863 L64.7963288,0.0671369863 L64.7963288,5.50920548 L59.4539726,5.50920548 Z M42.0669233,17.9845685 C42.0669233,19.9533904 42.4153205,21.4633767 43.1117178,22.5137329 C43.8085123,23.5648836 44.754389,24.0900616 45.9489507,24.0900616 C47.1212658,24.0900616 48.0444986,23.5481986 48.7198411,22.4636781 C49.3939918,21.3807466 49.731663,19.8874452 49.731663,17.9845685 C49.731663,16.1710753 49.4106767,14.7111438 48.7694986,13.604774 C48.127526,12.4984041 47.1876082,11.9454178 45.9489507,11.9454178 C44.6658,11.9454178 43.6976767,12.4928425 43.0453753,13.588089 C42.3926767,14.6825411 42.0669233,16.1488288 42.0669233,17.9845685 Z M36.6248548,17.9845685 C36.6248548,14.6888973 37.426526,12.1063082 39.030663,10.2368014 C40.6344027,8.36769178 42.6969781,7.4325411 45.2191836,7.4325411 C47.0771699,7.4325411 48.5704712,8.11860959 49.6982932,9.48995205 L49.6982932,0.000198630137 L54.9743068,0.000198630137 L54.9743068,28.6029384 L49.8313753,28.6029384 L49.8313753,26.0143904 C49.4329233,26.7004589 48.8028685,27.3035 47.9396219,27.8231164 C47.0771699,28.3423356 46.1587041,28.6029384 45.1858137,28.6029384 C44.123937,28.6029384 43.1005945,28.403911 42.1165808,28.0054589 C41.1317726,27.6074041 40.2192658,27.0103219 39.3790603,26.2138151 C38.5380603,25.4173082 37.869074,24.3113356 37.3717041,22.8955 C36.873937,21.4800616 36.6248548,19.8429521 36.6248548,17.9845685 Z" id="Fill-10"></path>
                <path d="M14.3013699,0 L0,0 L0,14.3013699 L0,20.058863 L0.860863014,19.198 L14.3013699,5.75947945 L14.3013699,14.3585753 L4.21691781,24.4406438 L0.0544246575,28.6027397 L14.3013699,28.6027397 C22.1996986,28.6027397 28.6027397,22.1996986 28.6027397,14.3013699 C28.6027397,6.4030411 22.1996986,0 14.3013699,0" id="Fill-1"></path>
            </g>
        </g>
    </g>
</svg>