<?xml version="1.0" encoding="UTF-8"?>
<svg width="250px" height="250px" viewBox="0 0 250 250" version="1.1" xmlns="http://www.w3.org/2000/svg" xmlns:xlink="http://www.w3.org/1999/xlink">
    <!-- Generator: Sketch 52.4 (67378) - http://www.bohemiancoding.com/sketch -->
    <title>Mark</title>
    <desc>Created with Sketch.</desc>
    <defs>
        <linearGradient x1="86.8723864%" y1="10.4687513%" x2="0%" y2="100%" id="linearGradient-1">
            <stop stop-color="#FFB800" offset="0%"></stop>
            <stop stop-color="#FF3900" offset="100%"></stop>
        </linearGradient>
    </defs>
    <g id="Branding-/-Styling-/-Marketing" stroke="none" stroke-width="1" fill="none" fill-rule="evenodd">
        <g id="Tablet" transform="translate(-275.000000, -175.000000)" fill="url(#linearGradient-1)">
            <path d="M275.067423,304.083333 C275.956332,331.930556 286.026001,357.529167 302.330531,377.916667 L382.514263,297.734722 L359.152631,299.680556 C352.277478,300.25 346.234288,295.125 345.666219,288.25 C345.095373,281.375 350.206598,275.331944 357.081752,274.763889 L409.514865,270.416667 C414.417753,270.013889 419.209526,271.777778 422.681826,275.25 C426.154125,278.708333 427.904164,283.5125 427.499989,288.402778 L423.195726,340.734722 C422.654047,347.263889 417.195592,352.208333 410.749615,352.208333 C410.403774,352.208333 410.056544,352.193056 409.707925,352.166667 C402.832772,351.597222 397.707658,345.555556 398.278504,338.680556 L400.195213,315.416667 L319.804532,395.805556 C340.568884,413.208333 367.013918,424.013889 395.91734,424.930556 C397.138201,424.968056 398.349339,424.994444 399.567421,425 L400.606333,425 C433.793185,424.8625 464.809154,411.955556 488.391624,388.388889 C513.07273,363.706944 526.045242,330.861111 524.934106,295.916667 C522.835448,230.25 469.750931,177.166667 404.0703,175.068056 C402.657768,175.022222 401.248014,175 399.843816,175 C366.484739,175 335.293766,187.927778 311.608516,211.611111 C286.928799,236.291667 273.942398,269.138889 275.067423,304.083333 Z" id="Mark"></path>
        </g>
    </g>
</svg>