<?xml version="1.0" encoding="UTF-8"?>
<svg width="15px" height="16px" viewBox="0 0 15 16" version="1.1" xmlns="http://www.w3.org/2000/svg" xmlns:xlink="http://www.w3.org/1999/xlink">
    <!-- Generator: Sketch 52.4 (67378) - http://www.bohemiancoding.com/sketch -->
    <title>clip-logo</title>
    <desc>Created with Sketch.</desc>
    <g id="Page-1" stroke="none" stroke-width="1" fill="none" fill-rule="evenodd">
        <g id="clip-logo" transform="translate(-1.000000, -2.000000)" fill="#FFFFFF">
            <g id="symbol" transform="translate(8.666667, 10.000000) rotate(120.000000) translate(-8.666667, -10.000000) translate(0.444444, 4.888889)">
                <path d="M10.748271,1.73403466 C10.5825436,1.73403466 10.434811,1.73432646 10.2867881,1.73403466 C8.02871462,1.73286748 5.77035089,1.73053312 3.51198714,1.73053312 C2.28978308,1.73053312 1.7934713,2.23417126 1.79260057,3.4693394 C1.79231033,3.79177285 1.7856348,4.1142063 1.79521274,4.43634796 C1.81959297,5.25745902 2.32954608,5.84951102 3.1355448,5.86585156 C4.77975902,5.899408 6.42484391,5.8856936 8.06963858,5.87197924 C8.54157013,5.86818591 8.90814431,5.62657969 9.19838511,5.24316107 C9.28923049,5.12323333 9.47556507,5.02110511 9.62445862,5.01147587 C10.0940683,4.98229636 10.5671608,5.00067947 11.0396728,5.00067947 C10.994105,6.08002907 10.0029326,7.1996464 8.83442311,7.49377573 C8.52792884,7.57080964 8.20140791,7.59561218 7.88388449,7.59794658 C6.36447382,7.60815938 4.84477293,7.607284 3.32565254,7.60086449 C1.39177801,7.59327782 0.0653775067,6.26327631 0.0647970249,4.32634125 C0.064506784,3.73924976 0.0395460743,3.14165364 0.136196264,2.56769292 C0.387544807,1.08187288 1.6306462,0.0325781415 3.12654734,0.0153622377 C4.79920516,-0.00360443587 6.47215316,-0.000978281062 8.14452071,0.0162376227 C9.27094533,0.0282012168 10.3845993,0.768193284 10.748271,1.73403466" id="Fill-3"></path>
                <path d="M5.58459676,8.37350844 L6.04607964,8.37350844 C8.30415316,8.3746756 10.5622267,8.37700996 12.8208807,8.37700996 C14.0427945,8.37700996 14.5393965,7.87337182 14.5402672,6.63820369 C14.5405575,6.31577022 14.547233,5.9933368 14.5376551,5.67119511 C14.5129846,4.85008404 14.0033217,4.25803205 13.197323,4.24169153 C11.5531088,4.20813511 9.90802391,4.22184947 8.2632292,4.23556384 C7.79129764,4.23935717 7.42472351,4.48096342 7.13448271,4.864382 C7.04363733,4.98430973 6.85730271,5.086438 6.7084092,5.09606724 C6.23850933,5.12524671 5.76570702,5.10686364 5.29290476,5.10686364 C5.3387628,4.02751402 6.32964493,2.90789668 7.49844467,2.61405914 C7.80493898,2.53673347 8.13116964,2.5119309 8.44898333,2.50988833 C9.968394,2.49938371 11.4880949,2.5002591 13.0072153,2.50667859 C14.9407996,2.51455705 16.2672,3.84426677 16.2680708,5.78120182 C16.2680708,6.36829333 16.2933217,6.96618124 16.1963813,7.54014196 C15.9450328,9.02567022 14.7019314,10.0749649 13.2063205,10.0921808 C11.5336627,10.1111475 9.8604244,10.1088132 8.18805684,10.0913055 C7.06163227,10.0793419 5.94826849,9.33934982 5.58459676,8.37350844" id="Fill-1"></path>
            </g>
        </g>
    </g>
</svg>