<?xml version="1.0" encoding="UTF-8"?>
<svg width="21px" height="17px" viewBox="0 0 21 17" version="1.1" xmlns="http://www.w3.org/2000/svg" xmlns:xlink="http://www.w3.org/1999/xlink">
    <!-- Generator: Sketch 52.4 (67378) - http://www.bohemiancoding.com/sketch -->
    <title>Slice 1</title>
    <desc>Created with Sketch.</desc>
    <g id="Page-1" stroke="none" stroke-width="1" fill="none" fill-rule="evenodd">
        <g id="twitter" fill="#3A4447">
            <path d="M20.8054391,2.11893522 C20.0531975,2.45291828 19.2447715,2.67765442 18.3957683,2.78065828 C19.260378,2.25939511 19.9283442,1.43848375 20.2404776,0.458384902 C19.4289305,0.939070124 18.529986,1.28865966 17.574857,1.47593977 C16.8101301,0.661271487 15.7207843,0.152493654 14.5128274,0.152493654 C12.1967963,0.152493654 10.3177529,2.03153784 10.3177529,4.34756815 C10.3177529,4.67530894 10.3552089,4.99680587 10.4269998,5.30269712 C6.94046785,5.12790234 3.85034639,3.45486668 1.78090096,0.917221374 C1.41882608,1.53836648 1.21281836,2.25939511 1.21281836,3.0303651 C1.21281836,4.4849069 1.9525746,5.76777586 3.0793764,6.52001743 C2.38956153,6.49816867 1.74344494,6.31088857 1.17848347,5.99563313 C1.17848347,6.01436153 1.17848347,6.02996799 1.17848347,6.04869643 C1.17848347,8.08068501 2.62366186,9.77557025 4.5432824,10.1626158 C4.19057173,10.2593774 3.82225457,10.3093187 3.43833015,10.3093187 C3.16677378,10.3093187 2.90458163,10.2843481 2.64863254,10.2344067 C3.18238026,11.8980781 4.73056252,13.1153993 6.56590763,13.1466122 C5.13321535,14.2734141 3.32284095,14.9413802 1.35639937,14.9413802 C1.01617404,14.9413802 0.68531211,14.9226518 0.357572115,14.8851958 C2.21164561,16.074425 4.41842899,16.767361 6.78752258,16.767361 C14.5034632,16.767361 18.7235084,10.3748666 18.7235084,4.83449644 C18.7235084,4.65033826 18.7203872,4.46930042 18.711023,4.28826338 C19.5319344,3.70145236 20.2435988,2.96169532 20.8054391,2.11893522" id="Path"></path>
        </g>
    </g>
</svg>