<?xml version="1.0" encoding="UTF-8"?>
<svg width="25px" height="24px" viewBox="0 0 25 24" version="1.1" xmlns="http://www.w3.org/2000/svg" xmlns:xlink="http://www.w3.org/1999/xlink">
    <!-- Generator: Sketch 52.4 (67378) - http://www.bohemiancoding.com/sketch -->
    <title>edit (1)</title>
    <desc>Created with Sketch.</desc>
    <g id="Page-1" stroke="none" stroke-width="1" fill="none" fill-rule="evenodd">
        <g id="edit-(1)" fill="#909399">
            <path d="M23.4056744,14.5872533 C23.0568256,14.5872533 22.7740954,14.8699835 22.7740954,15.2188323 L22.7740954,20.8268092 C22.7728618,21.8726151 21.9254112,22.7203125 20.8793586,22.721546 L3.15789474,22.721546 C2.11184211,22.7203125 1.26439143,21.8726151 1.26315789,20.8268092 L1.26315789,4.36850331 C1.26439143,3.32245067 2.11184211,2.475 3.15789474,2.47376646 L8.76562497,2.47376646 C9.11447368,2.47376646 9.39720392,2.19103617 9.39720392,1.84218752 C9.39720392,1.4933388 9.11447368,1.21060857 8.76562497,1.21060857 L3.15789474,1.21060857 C1.41463819,1.21258225 0.00197368421,2.62524669 0,4.36850331 L0,20.8268092 C0.00197368421,22.5700658 1.41463819,23.9827302 3.15789474,23.9847039 L20.8793586,23.9847039 C22.6226151,23.9827302 24.0352796,22.5700658 24.0372533,20.8268092 L24.0372533,15.2190789 C24.0372533,14.8702302 23.754523,14.5872533 23.4056744,14.5872533 Z" id="Path"></path>
            <polygon id="Path" points="9.8758224 11.2638158 19.0976151 2.04177632 22.0717105 5.01587173 12.8499177 14.2379112"></polygon>
            <polygon id="Path" points="8.37113488 15.7425987 11.6578125 14.8322368 9.28149669 12.4559211"></polygon>
            <path d="M22.8939967,0.478618421 C22.2769737,-0.136924358 21.2780428,-0.136924358 20.6610197,0.478618421 L19.9912007,1.14843752 L22.9652961,4.12253293 L23.6351151,3.45271383 C24.2509046,2.83569082 24.2509046,1.83675985 23.6351151,1.21973684 L22.8939967,0.478618421 Z" id="Path"></path>
        </g>
    </g>
</svg>